<svg width="960" height="74" viewBox="0 0 960 74" fill="none" xmlns="http://www.w3.org/2000/svg" role="img" aria-labelledby="title">
  <title id="title">Animated pixel signal</title>
  <g fill="#58A6FF">
    <rect x="0" y="34" width="7" height="7" opacity=".25"><animate attributeName="opacity" values=".25;1;.25" dur="1.8s" repeatCount="indefinite"/></rect>
    <rect x="18" y="34" width="7" height="7" opacity=".35"><animate attributeName="opacity" values=".35;1;.35" dur="1.8s" begin=".12s" repeatCount="indefinite"/></rect>
    <rect x="36" y="34" width="7" height="7" opacity=".45"><animate attributeName="opacity" values=".45;1;.45" dur="1.8s" begin=".24s" repeatCount="indefinite"/></rect>
    <rect x="54" y="27" width="7" height="7" opacity=".6"><animate attributeName="opacity" values=".6;1;.6" dur="1.8s" begin=".36s" repeatCount="indefinite"/></rect>
    <rect x="72" y="20" width="7" height="7" opacity=".75"><animate attributeName="opacity" values=".75;1;.75" dur="1.8s" begin=".48s" repeatCount="indefinite"/></rect>
  </g>
  <path d="M96 37H390" stroke="#30363D" stroke-width="2" stroke-dasharray="3 8"/>
  <path d="M570 37H864" stroke="#30363D" stroke-width="2" stroke-dasharray="3 8"/>
  <g fill="#58A6FF">
    <rect x="881" y="20" width="7" height="7" opacity=".75"><animate attributeName="opacity" values=".75;1;.75" dur="1.8s" begin=".48s" repeatCount="indefinite"/></rect>
    <rect x="899" y="27" width="7" height="7" opacity=".6"><animate attributeName="opacity" values=".6;1;.6" dur="1.8s" begin=".36s" repeatCount="indefinite"/></rect>
    <rect x="917" y="34" width="7" height="7" opacity=".45"><animate attributeName="opacity" values=".45;1;.45" dur="1.8s" begin=".24s" repeatCount="indefinite"/></rect>
    <rect x="935" y="34" width="7" height="7" opacity=".35"><animate attributeName="opacity" values=".35;1;.35" dur="1.8s" begin=".12s" repeatCount="indefinite"/></rect>
    <rect x="953" y="34" width="7" height="7" opacity=".25"><animate attributeName="opacity" values=".25;1;.25" dur="1.8s" repeatCount="indefinite"/></rect>
  </g>
  <g transform="translate(426 9)">
    <rect width="108" height="56" rx="4" fill="#161B22" stroke="#30363D"/>
    <rect x="13" y="15" width="8" height="8" fill="#58A6FF"><animate attributeName="fill-opacity" values="1;.3;1" dur="1.2s" repeatCount="indefinite"/></rect>
    <rect x="28" y="15" width="47" height="8" fill="#58A6FF" opacity=".55"/>
    <rect x="13" y="31" width="62" height="6" fill="#8B949E" opacity=".55"/>
    <rect x="13" y="42" width="34" height="4" fill="#30363D"/>
    <rect x="79" y="31" width="15" height="15" fill="#58A6FF" opacity=".2"><animate attributeName="opacity" values=".2;.8;.2" dur="1.8s" repeatCount="indefinite"/></rect>
  </g>
</svg>
